<?xml version="1.0" standalone="no"?>
<!DOCTYPE svg PUBLIC "-//W3C//DTD SVG 1.1//EN" "http://www.w3.org/Graphics/SVG/1.1/DTD/svg11.dtd" >
<svg xmlns="http://www.w3.org/2000/svg">
<metadata>Generated by IcoMoon</metadata>
<defs>
<font id="icomoon" horiz-adv-x="1024">
<font-face units-per-em="1024" ascent="960" descent="-64" />
<missing-glyph horiz-adv-x="1024" />
<glyph unicode="&#x20;" horiz-adv-x="512" d="" />
<glyph unicode="&#xe900;" glyph-name="chevron-right" d="M353.83 161.83c-16.662 16.661-16.662 43.678 0 60.339l225.831 225.83-225.831 225.83c-16.662 16.663-16.662 43.677 0 60.34s43.678 16.662 60.34 0l256-256c16.661-16.661 16.661-43.678 0-60.339l-256-256c-16.661-16.661-43.677-16.661-60.34 0z" />
<glyph unicode="&#xe901;" glyph-name="home" d="M483.652 863.889c16.166 14.37 40.529 14.37 56.695 0l384-341.334c17.613-15.654 19.196-42.624 3.541-60.237-15.654-17.609-42.624-19.196-60.237-3.541l-14.319 12.727v-322.172c0-47.13-38.204-85.333-85.333-85.333h-512c-47.128 0-85.333 38.204-85.333 85.333v322.172l-14.321-12.727c-17.612-15.654-44.58-14.067-60.236 3.541-15.655 17.613-14.069 44.582 3.543 60.237l383.998 341.334zM256 547.358v-398.025h128v213.333c0 23.565 19.103 42.667 42.666 42.667h170.667c23.565 0 42.667-19.102 42.667-42.667v-213.333h128v398.025l-256 227.556-256-227.556zM554.667 149.333v170.667h-85.333v-170.667h85.333z" />
<glyph unicode="&#xe902;" glyph-name="settings" d="M512 789.333c-23.565 0-42.667-19.103-42.667-42.667 0-72.203-87.296-108.362-138.352-57.307-16.662 16.663-43.677 16.663-60.34 0s-16.662-43.677 0-60.34c51.057-51.057 14.893-138.353-57.309-138.353-23.564 0-42.667-19.102-42.667-42.667s19.103-42.667 42.667-42.667c72.207 0 108.358-87.3 57.306-138.351-16.663-16.666-16.663-43.678 0-60.343 16.662-16.661 43.677-16.661 60.34 0 51.054 51.055 138.354 14.899 138.354-57.306 0-23.565 19.102-42.667 42.667-42.667s42.667 19.102 42.667 42.667c0 72.205 87.296 108.365 138.355 57.31 16.661-16.666 43.678-16.666 60.339 0 16.661 16.661 16.661 43.674 0 60.339-51.055 51.051-14.899 138.351 57.306 138.351 23.565 0 42.667 19.102 42.667 42.667s-19.102 42.667-42.667 42.667c-72.201 0-108.369 87.294-57.31 138.352 16.661 16.663 16.661 43.677 0 60.34s-43.678 16.662-60.339 0c-51.055-51.057-138.351-14.892-138.351 57.308 0 23.564-19.102 42.667-42.667 42.667zM384.348 756.18c4.867 66.25 60.157 118.487 127.652 118.487s122.786-52.237 127.65-118.487c50.287 43.403 126.323 41.243 174.046-6.481 47.727-47.724 49.886-123.759 6.481-174.047 66.253-4.866 118.49-60.157 118.49-127.652s-52.237-122.786-118.485-127.65c43.405-50.287 41.242-126.323-6.481-174.050-47.727-47.723-123.759-49.882-174.050-6.477-4.864-66.253-60.156-118.49-127.65-118.49s-122.786 52.237-127.652 118.49c-50.287-43.405-126.324-41.246-174.049 6.477-47.725 47.727-49.885 123.763-6.48 174.050-66.249 4.864-118.486 60.156-118.486 127.65s52.238 122.786 118.489 127.652c-43.405 50.287-41.245 126.323 6.48 174.048s123.759 49.885 174.046 6.481zM512 533.333c-22.63 0-44.335-8.99-60.339-24.994s-24.994-37.709-24.994-60.339c0-22.63 8.99-44.335 24.994-60.339s37.709-24.994 60.339-24.994c22.63 0 44.335 8.99 60.339 24.994s24.994 37.709 24.994 60.339c0 22.63-8.99 44.335-24.994 60.339s-37.709 24.994-60.339 24.994zM391.32 568.68c32.006 32.006 75.415 49.987 120.68 49.987s88.674-17.981 120.678-49.987c32.009-32.006 49.988-75.415 49.988-120.68s-17.98-88.674-49.988-120.678c-32.004-32.009-75.413-49.988-120.678-49.988s-88.673 17.98-120.68 49.988c-32.006 32.004-49.987 75.413-49.987 120.678s17.981 88.673 49.987 120.68z" />
<glyph unicode="&#xe903;" glyph-name="chevron-down" d="M225.83 563.503c16.663 16.662 43.677 16.662 60.34 0l225.83-225.831 225.83 225.831c16.661 16.662 43.678 16.662 60.339 0s16.661-43.678 0-60.34l-256-256c-16.661-16.661-43.678-16.661-60.339 0l-256 256c-16.662 16.661-16.662 43.677 0 60.34z" />
<glyph unicode="&#xe904;" glyph-name="chevron-left" d="M670.17 734.17c16.661-16.663 16.661-43.677 0-60.34l-225.83-225.83 225.83-225.83c16.661-16.661 16.661-43.678 0-60.339s-43.678-16.661-60.339 0l-256 256c-16.662 16.661-16.662 43.678 0 60.339l256 256c16.661 16.662 43.678 16.662 60.339 0z" />
<glyph unicode="&#xe905;" glyph-name="chevron-up" d="M481.83 648.837c16.661 16.662 43.678 16.662 60.339 0l256-256c16.661-16.661 16.661-43.678 0-60.339s-43.678-16.661-60.339 0l-225.83 225.83-225.83-225.83c-16.663-16.661-43.677-16.661-60.34 0s-16.662 43.678 0 60.339l256 256z" />
<glyph unicode="&#xe906;" glyph-name="download" d="M469.333 789.333c-94.258 0-170.667-76.41-170.667-170.667 0-1.383 0.020-2.828 0.056-4.362 0.464-19.841-12.814-37.382-32.036-42.322-55.241-14.195-96.020-64.381-96.020-123.983 0-70.694 57.309-128 128-128h42.667c23.564 0 42.667-19.102 42.667-42.667s-19.103-42.667-42.667-42.667h-42.667c-117.819 0-213.333 95.514-213.333 213.333 0 88.002 53.257 163.479 129.248 196.108 12.77 129.441 121.95 230.559 254.752 230.559 94.874 0 177.617-51.599 221.824-128.138 137.459-4.48 247.509-117.318 247.509-255.862 0-141.385-114.611-256-256-256-23.565 0-42.667 19.102-42.667 42.667s19.102 42.667 42.667 42.667c94.259 0 170.667 76.412 170.667 170.667 0 94.257-76.407 170.667-170.667 170.667-4.723 0-9.387-0.191-14.003-0.564-18.214-1.474-35.345 8.816-42.598 25.588-26.24 60.662-86.592 102.976-156.732 102.976zM512 533.333c23.565 0 42.667-19.102 42.667-42.667v-323.661l12.497 12.497c16.661 16.661 43.678 16.661 60.339 0s16.661-43.678 0-60.339l-85.333-85.333c-8-8-18.854-12.497-30.17-12.497s-22.17 4.497-30.17 12.497l-85.334 85.333c-16.662 16.661-16.662 43.678 0 60.339s43.678 16.661 60.34 0l12.497-12.497v323.661c0 23.565 19.102 42.667 42.667 42.667z" />
<glyph unicode="&#xe907;" glyph-name="upload" d="M469.333 789.333c-94.258 0-170.667-76.41-170.667-170.667 0-1.383 0.020-2.828 0.056-4.362 0.464-19.841-12.814-37.382-32.036-42.322-55.241-14.195-96.020-64.381-96.020-123.983 0-70.694 57.309-128 128-128h42.667c23.564 0 42.667-19.102 42.667-42.667s-19.103-42.667-42.667-42.667h-42.667c-117.819 0-213.333 95.514-213.333 213.333 0 88.002 53.257 163.479 129.248 196.108 12.77 129.441 121.95 230.559 254.752 230.559 94.874 0 177.617-51.599 221.824-128.138 137.459-4.48 247.509-117.318 247.509-255.862 0-141.385-114.611-256-256-256-23.565 0-42.667 19.102-42.667 42.667s19.102 42.667 42.667 42.667c94.259 0 170.667 76.412 170.667 170.667 0 94.257-76.407 170.667-170.667 170.667-4.723 0-9.387-0.191-14.003-0.564-18.214-1.474-35.345 8.816-42.598 25.588-26.24 60.662-86.592 102.976-156.732 102.976zM481.83 563.503c16.661 16.662 43.678 16.662 60.339 0l85.333-85.334c16.661-16.661 16.661-43.678 0-60.339s-43.678-16.661-60.339 0l-12.497 12.497v-323.661c0-23.565-19.102-42.667-42.667-42.667s-42.667 19.102-42.667 42.667v323.661l-12.497-12.497c-16.661-16.661-43.677-16.661-60.34 0s-16.662 43.678 0 60.339l85.334 85.334z" />
<glyph unicode="&#xe908;" glyph-name="circle-information" d="M512 789.333c-188.513 0-341.333-152.82-341.333-341.333s152.82-341.333 341.333-341.333c188.514 0 341.333 152.819 341.333 341.333s-152.819 341.333-341.333 341.333zM85.333 448c0 235.642 191.025 426.667 426.667 426.667 235.639 0 426.667-191.025 426.667-426.667 0-235.639-191.027-426.667-426.667-426.667-235.642 0-426.667 191.027-426.667 426.667zM512 533.333c23.565 0 42.667-19.102 42.667-42.667v-256c0-23.565-19.102-42.667-42.667-42.667s-42.667 19.102-42.667 42.667v256c0 23.565 19.102 42.667 42.667 42.667zM576 640c0-35.346-28.655-64-64-64s-64 28.654-64 64c0 35.346 28.655 64 64 64s64-28.654 64-64z" />
<glyph unicode="&#xe909;" glyph-name="users" d="M426.667 789.333c-94.257 0-170.667-76.41-170.667-170.667 0-94.255 76.41-170.667 170.667-170.667 94.255 0 170.667 76.412 170.667 170.667 0 94.257-76.412 170.667-170.667 170.667zM170.667 618.667c0 141.385 114.615 256 256 256s256-114.615 256-256c0-141.385-114.615-256-256-256s-256 114.615-256 256zM718.012 799.686c16.666 16.663 43.678 16.663 60.339 0 99.977-99.974 99.977-262.065 0-362.037-16.661-16.666-43.674-16.666-60.339 0-16.661 16.661-16.661 43.674 0 60.339 66.65 66.648 66.65 174.708 0 241.358-16.661 16.662-16.661 43.677 0 60.34zM747.942 245.013c5.713 22.861 28.877 36.762 51.738 31.044 56.661-14.161 92.523-50.389 113.148-91.644 19.959-39.915 25.839-84.45 25.839-120.414 0-23.565-19.102-42.667-42.667-42.667s-42.667 19.102-42.667 42.667c0 28.036-4.787 58.167-16.828 82.253-11.375 22.746-28.847 39.851-57.519 47.023-22.861 5.713-36.762 28.877-31.044 51.738zM277.333 192c-53.737 0-106.667-51.776-106.667-128 0-23.565-19.103-42.667-42.667-42.667s-42.667 19.102-42.667 42.667c0 112.29 80.788 213.333 192 213.333h298.667c111.211 0 192-101.043 192-213.333 0-23.565-19.102-42.667-42.667-42.667s-42.667 19.102-42.667 42.667c0 76.224-52.928 128-106.667 128h-298.667z" />
<glyph unicode="&#xe90a;" glyph-name="map" d="M370.508 829.81c8.758 2.92 18.227 2.92 26.985 0l242.508-80.836 186.347 62.116c55.258 18.419 112.32-22.709 112.32-80.954v-507.382c0-36.732-23.505-69.342-58.347-80.956l-226.829-75.61c-8.755-2.918-18.227-2.918-26.982 0l-242.509 80.836-186.348-62.114c-55.256-18.419-112.318 22.707-112.318 80.951v507.385c0 36.73 23.503 69.339 58.348 80.954l226.826 75.608zM426.667 222.754l170.667-56.892v507.385l-170.667 56.889v-507.382zM341.333 730.136l-170.667-56.889v-507.385l170.667 56.892v507.382zM682.667 673.248v-507.385l170.667 56.892v507.382l-170.667-56.889z" />
<glyph unicode="&#xe90b;" glyph-name="calendar" d="M384 874.667c23.564 0 42.667-19.103 42.667-42.667v-42.667h170.667v42.667c0 23.564 19.102 42.667 42.667 42.667s42.667-19.103 42.667-42.667v-42.667h128c47.13 0 85.333-38.205 85.333-85.333v-554.667c0-47.13-38.204-85.333-85.333-85.333h-597.333c-47.128 0-85.333 38.204-85.333 85.333v554.667c0 47.128 38.205 85.333 85.333 85.333h128v42.667c0 23.564 19.103 42.667 42.667 42.667zM341.333 704h-128v-128h597.333v128h-128v-42.667c0-23.564-19.102-42.667-42.667-42.667s-42.667 19.103-42.667 42.667v42.667h-170.667v-42.667c0-23.564-19.103-42.667-42.667-42.667s-42.667 19.103-42.667 42.667v42.667zM810.667 490.667h-597.333v-341.333h597.333v341.333z" />
<glyph unicode="&#xe90c;" glyph-name="document-empty" d="M170.667 789.333c0 47.128 38.205 85.333 85.333 85.333h341.333c11.315 0 22.17-4.495 30.17-12.497l213.333-213.333c8-8.002 12.497-18.854 12.497-30.17v-512c0-47.13-38.204-85.333-85.333-85.333h-512c-47.128 0-85.333 38.204-85.333 85.333v682.667zM750.327 618.667l-152.994 152.994v-152.994h152.994zM512 789.333h-256v-682.667h512v426.667h-213.333c-23.565 0-42.667 19.103-42.667 42.667v213.333z" />
<glyph unicode="&#xe90d;" glyph-name="check" d="M881.681 735.889c17.613-15.655 19.196-42.624 3.541-60.236l-455.108-512.001c-8.099-9.109-19.704-14.319-31.892-14.319s-23.793 5.21-31.889 14.319l-227.555 256c-15.655 17.613-14.069 44.582 3.543 60.237s44.58 14.067 60.236-3.541l195.666-220.126 423.222 476.124c15.654 17.612 42.624 19.199 60.237 3.543z" />
<glyph unicode="&#xe90e;" glyph-name="options" d="M512 362.667c47.13 0 85.333 38.204 85.333 85.333s-38.204 85.333-85.333 85.333c-47.13 0-85.333-38.204-85.333-85.333s38.204-85.333 85.333-85.333zM256 362.667c47.128 0 85.333 38.204 85.333 85.333s-38.205 85.333-85.333 85.333c-47.128 0-85.333-38.204-85.333-85.333s38.205-85.333 85.333-85.333zM768 362.667c47.13 0 85.333 38.204 85.333 85.333s-38.204 85.333-85.333 85.333c-47.13 0-85.333-38.204-85.333-85.333s38.204-85.333 85.333-85.333z" />
<glyph unicode="&#xe90f;" glyph-name="close" d="M118.521 841.479c22.907 22.906 60.057 22.906 82.964 0l310.516-310.517 310.516 310.517c22.905 22.906 60.058 22.906 82.963 0s22.905-60.057 0-82.964l-310.516-310.516 310.516-310.516c22.905-22.905 22.905-60.058 0-82.963s-60.058-22.905-82.963 0l-310.516 310.516-310.516-310.516c-22.907-22.905-60.057-22.905-82.964 0s-22.906 60.058 0 82.963l310.517 310.516-310.517 310.516c-22.906 22.907-22.906 60.057 0 82.964z" />
<glyph unicode="&#xe910;" glyph-name="external-link" d="M597.333 746.667c-23.565 0-42.667 19.103-42.667 42.667s19.102 42.667 42.667 42.667h256c11.315 0 22.17-4.495 30.17-12.497s12.497-18.854 12.497-30.17v-256c0-23.565-19.102-42.667-42.667-42.667s-42.667 19.102-42.667 42.667v152.993l-396.497-396.496c-16.663-16.661-43.677-16.661-60.34 0s-16.662 43.678 0 60.339l396.497 396.497h-152.994zM128 661.333c0 47.128 38.205 85.333 85.333 85.333h213.333c23.565 0 42.667-19.103 42.667-42.667s-19.102-42.667-42.667-42.667h-213.333v-512h512v213.333c0 23.565 19.102 42.667 42.667 42.667s42.667-19.102 42.667-42.667v-213.333c0-47.13-38.204-85.333-85.333-85.333h-512c-47.128 0-85.333 38.204-85.333 85.333v512z" />
<glyph unicode="&#xe911;" glyph-name="eye-off" d="M200.837 819.503c-16.663 16.662-43.677 16.662-60.34 0s-16.662-43.677 0-60.34l103.431-103.431c-61.042-45.914-114.253-108.977-154.090-188.652-6.006-12.011-6.006-26.15 0-38.161 92.084-184.171 255.629-279.586 422.162-279.586 66.355 0 132.233 15.147 193.306 45.022l117.858-117.858c16.661-16.661 43.678-16.661 60.339 0s16.661 43.678 0 60.339l-682.666 682.667zM640.589 259.072c-41.792-16.35-85.35-24.405-128.589-24.405-126.668 0-256.083 69.154-335.801 213.333 34.882 63.087 79.28 111.812 128.799 146.663l91.477-91.478c-7.997-16.708-12.474-35.426-12.474-55.185 0-70.694 57.306-128 128-128 19.759 0 38.477 4.476 55.185 12.476l73.404-73.404zM791.565 367.125c20.608 23.693 39.514 50.633 56.235 80.875-79.718 144.18-209.135 213.333-335.799 213.333-4.779 0-9.562-0.099-14.349-0.296l-76.131 76.132c29.782 6.318 60.079 9.497 90.479 9.497 166.532 0 330.078-95.418 422.161-279.586 6.007-12.011 6.007-26.15 0-38.161-23.211-46.421-50.961-87.202-82.155-122.236l-60.442 60.442z" />
<glyph unicode="&#xe912;" glyph-name="eye" d="M640 448c0-70.694-57.306-128-128-128s-128 57.306-128 128c0 70.694 57.306 128 128 128s128-57.306 128-128zM934.161 467.081c-92.083 184.169-255.629 279.586-422.161 279.586-166.534 0-330.078-95.418-422.162-279.586-6.006-12.011-6.006-26.15 0-38.161 92.084-184.171 255.629-279.586 422.162-279.586s330.078 95.415 422.161 279.586c6.007 12.011 6.007 26.15 0 38.161zM512 234.667c-126.668 0-256.083 69.154-335.801 213.333 79.718 144.18 209.133 213.333 335.801 213.333s256.081-69.153 335.799-213.333c-79.718-144.179-209.131-213.333-335.799-213.333z" />
<glyph unicode="&#xe913;" glyph-name="avatar" d="M622.748 272.16c-3.28 36.189-2.018 61.444-2.018 94.516 16.39 8.599 45.753 63.421 50.714 109.736 12.886 1.058 33.205 13.626 39.152 63.263 3.209 26.65-9.539 41.645-17.31 46.361 20.968 63.063 64.52 258.155-80.552 278.311-14.929 26.221-53.162 39.489-102.844 39.489-198.77-3.658-222.748-150.099-179.176-317.8-7.746-4.716-20.498-19.711-17.31-46.361 5.973-49.636 26.267-62.21 39.152-63.263 4.941-46.29 35.473-101.137 51.905-109.736 0-33.067 1.236-58.327-2.044-94.516-39.331-105.741-304.715-76.061-316.972-279.997h853.1c-12.237 203.935-276.471 174.256-315.802 279.997z" />
<glyph unicode="&#xe914;" glyph-name="barchart" d="M904.727 153.455v490.909c0 18.075-14.653 32.727-32.727 32.727v0h-130.909c-18.075 0-32.727-14.653-32.727-32.727v0-490.909h-65.455v621.818c0 18.075-14.653 32.727-32.727 32.727v0h-130.909c-18.075 0-32.727-14.653-32.727-32.727v0-621.818h-65.455v327.273c0 18.075-14.653 32.727-32.727 32.727v0h-130.909c-18.075 0-32.727-14.653-32.727-32.727v0-327.273h-65.455v654.545h-65.455v-687.273c0-18.075 14.653-32.727 32.727-32.727v0h883.636v65.455zM773.818 611.636h65.455v-458.182h-65.455zM512 742.545h65.455v-589.091h-65.455zM250.182 448h65.455v-294.545h-65.455z" />
<glyph unicode="&#xe915;" glyph-name="filter" d="M410.001 40.001c-0.033 0-0.070 0-0.109 0-6.632 0-12.82 1.898-18.053 5.184l0.142-0.084c-9.658 6.109-15.979 16.732-15.979 28.831 0 0.023 0 0.048 0 0.070v-0.003 327.079l-262.481 291.379c-27.001 29.973-43.519 69.854-43.519 113.59 0 0.108 0 0.217 0 0.325v-0.016 15.641c0 18.777 15.221 34.001 34.001 34.001v0h816c18.777 0 34.001-15.221 34.001-34.001v0-15.641c0-0.092 0-0.201 0-0.309 0-43.739-16.518-83.62-43.656-113.743l0.136 0.153-262.481-291.379v-182.921c0-0.059 0-0.131 0-0.201 0-39.727-22.711-74.15-55.859-90.992l-0.579-0.267-166.26-82.961c-4.446-2.328-9.707-3.706-15.29-3.739h-0.010zM139.701 788.002c3.603-19.433 12.263-36.421 24.562-50.072l-0.082 0.092 271.999-301.241c4.877-5.844 7.838-13.431 7.838-21.714 0-0.374-0.006-0.749-0.017-1.121l0.001 0.054v-284.921l117.3 58.481c11.18 5.723 18.702 17.166 18.702 30.362 0 0.084 0 0.166-0.001 0.25v-0.012 195.84c0.022 8.786 3.376 16.786 8.865 22.806l-0.023-0.028 271.999 301.241c12.465 13.505 21.356 30.49 25.054 49.333l0.105 0.647z" />
<glyph unicode="&#xe916;" glyph-name="dots" d="M512 661.344c47.136 0 85.344 38.208 85.344 85.344s-38.208 85.344-85.344 85.344c-47.136 0-85.344-38.208-85.344-85.344v0c0-47.136 38.208-85.344 85.344-85.344v0zM512 234.656c-47.136 0-85.344-38.208-85.344-85.344s38.208-85.344 85.344-85.344c47.136 0 85.344 38.208 85.344 85.344v0c0 47.136-38.208 85.344-85.344 85.344v0zM512 533.344c-47.136 0-85.344-38.208-85.344-85.344s38.208-85.344 85.344-85.344c47.136 0 85.344 38.208 85.344 85.344v0c0 47.136-38.208 85.344-85.344 85.344v0z" />
<glyph unicode="&#xe917;" glyph-name="video" d="M918.624 654.944c-6.112 3.584-13.472 5.728-21.344 5.728s-15.2-2.112-21.536-5.824l0.192 0.096-150.624-74.24c-2.592 68.64-58.88 123.296-127.904 123.296-0.032 0-0.064 0-0.096 0h-384c-70.688 0-128-57.312-128-128v0-256c0-70.688 57.312-128 128-128v0h384c0.032 0 0.064 0 0.096 0 69.056 0 125.312 54.656 127.904 123.072v0.224l151.904-75.936c5.472-2.848 11.904-4.576 18.752-4.704h0.032c0.032 0 0.096 0 0.128 0 8.32 0 16.096 2.368 22.656 6.496l-0.192-0.096c12.128 7.68 20.064 20.992 20.064 36.192 0 0.032 0 0.064 0 0.096v0 341.344c0 0.032 0 0.064 0 0.096 0 15.2-7.936 28.512-19.872 36.064l-0.16 0.096zM640 320c0-23.552-19.104-42.656-42.656-42.656v0h-384c-23.552 0-42.656 19.104-42.656 42.656v0 256c0 23.552 19.104 42.656 42.656 42.656v0h384c23.552 0 42.656-19.104 42.656-42.656v0zM853.344 346.464l-128 64v75.104l128 64z" />
<glyph unicode="&#xe918;" glyph-name="vector-square" d="M853.344 269.664v356.704c50.432 17.952 85.888 65.28 85.888 120.864 0 70.688-57.312 128-128 128-55.616 0-102.912-35.456-120.608-84.992l-0.288-0.896h-356.704c-17.952 50.432-65.28 85.888-120.864 85.888-70.688 0-128-57.312-128-128 0-55.616 35.456-102.912 84.992-120.608l0.896-0.288v-356.704c-50.432-17.952-85.888-65.28-85.888-120.864 0-70.688 57.312-128 128-128 55.616 0 102.912 35.456 120.608 84.992l0.288 0.896h356.704c17.952-50.432 65.28-85.888 120.864-85.888 70.688 0 128 57.312 128 128 0 55.616-35.456 102.912-84.992 120.608l-0.896 0.288zM810.656 789.344c23.552 0 42.656-19.104 42.656-42.656s-19.104-42.656-42.656-42.656c-23.552 0-42.656 19.104-42.656 42.656v0c0 23.552 19.104 42.656 42.656 42.656v0zM213.344 789.344c23.552 0 42.656-19.104 42.656-42.656s-19.104-42.656-42.656-42.656c-23.552 0-42.656 19.104-42.656 42.656v0c0 23.552 19.104 42.656 42.656 42.656v0zM213.344 106.656c-23.552 0-42.656 19.104-42.656 42.656s19.104 42.656 42.656 42.656c23.552 0 42.656-19.104 42.656-42.656v0c0-23.552-19.104-42.656-42.656-42.656v0zM690.336 192h-356.704c-13.184 36.32-41.312 64.448-76.768 77.376l-0.896 0.288v356.704c36.32 13.184 64.448 41.312 77.376 76.768l0.288 0.896h356.704c13.184-36.32 41.312-64.448 76.768-77.376l0.896-0.288v-356.704c-36.32-13.184-64.448-41.312-77.376-76.768l-0.288-0.896zM810.656 106.656c-23.552 0-42.656 19.104-42.656 42.656s19.104 42.656 42.656 42.656c23.552 0 42.656-19.104 42.656-42.656v0c0-23.552-19.104-42.656-42.656-42.656v0z" />
<glyph unicode="&#xe919;" glyph-name="search" d="M926.304 94.304l-158.304 157.024c52.608 65.152 84.448 148.992 84.448 240.256 0 212.064-171.936 384-384 384s-384-171.936-384-384c0-212.064 171.936-384 384-384 91.264 0 175.104 31.84 240.992 85.024l-0.736-0.576 157.024-157.024c7.744-7.808 18.464-12.608 30.304-12.608s22.56 4.832 30.304 12.608v0c7.424 7.68 12 18.112 12 29.664s-4.576 21.984-12 29.664v0zM469.344 192c-164.96 0-298.656 133.728-298.656 298.656s133.728 298.656 298.656 298.656c164.96 0 298.656-133.728 298.656-298.656v0c0-164.96-133.728-298.656-298.656-298.656v0z" />
<glyph unicode="&#xe91a;" glyph-name="plus" d="M810.656 490.656h-256v256c0 23.552-19.104 42.656-42.656 42.656s-42.656-19.104-42.656-42.656v0-256h-256c-23.552 0-42.656-19.104-42.656-42.656s19.104-42.656 42.656-42.656v0h256v-256c0-23.552 19.104-42.656 42.656-42.656s42.656 19.104 42.656 42.656v0 256h256c23.552 0 42.656 19.104 42.656 42.656s-19.104 42.656-42.656 42.656v0z" />
<glyph unicode="&#xe91b;" glyph-name="minus" d="M810.656 490.656h-597.344c-23.552 0-42.656-19.104-42.656-42.656s19.104-42.656 42.656-42.656v0h597.344c23.552 0 42.656 19.104 42.656 42.656s-19.104 42.656-42.656 42.656v0z" />
<glyph unicode="&#xe91c;" glyph-name="play" d="M944.036 448.116c-0.108-27.864-15.984-52.002-39.204-63.882l-0.432-0.162-720.054-360.062c-9.396-4.914-20.574-7.83-32.4-7.938v0c-0.054 0-0.162 0-0.216 0-14.040 0-27.162 3.996-38.232 10.962l0.324-0.162c-20.466 12.96-33.858 35.424-33.858 61.074 0 0.054 0 0.108 0 0.162v0 720.054c0.108 39.69 32.292 71.766 71.982 71.766 11.826 0 22.95-2.862 32.832-7.884l719.616-359.846c23.598-12.096 39.528-36.234 39.582-64.044v0z" />
<glyph unicode="&#xe91d;" glyph-name="stop" d="M810.664 896.016h-597.328c-82.152 0-149.352-67.2-149.352-149.352v-597.328c0-82.152 67.2-149.352 149.352-149.352h597.328c82.152 0 149.352 67.2 149.352 149.352v597.328c0 82.152-67.2 149.352-149.352 149.352z" />
<glyph unicode="&#xe91e;" glyph-name="cursor" d="M298.656 874.656l512-477.856-247.456-21.344 140.8-311.456-93.856-42.688-136.544 315.744-174.944-166.4v704z" />
<glyph unicode="&#xe91f;" glyph-name="code" d="M265.024 689.12c-11.040 9.216-25.344 14.784-40.992 14.784-19.68 0-37.312-8.864-49.056-22.816l-0.064-0.096-160-192c-9.28-11.008-14.912-25.344-14.912-40.992s5.632-29.984 14.976-41.088l-0.064 0.096 160-192c11.808-14.24 29.536-23.264 49.344-23.264 35.328 0 63.968 28.64 63.968 63.968 0 15.776-5.696 30.208-15.168 41.376l0.064-0.096-125.856 150.976 125.856 150.976c9.248 11.008 14.848 25.344 14.848 40.992 0 19.68-8.896 37.312-22.88 49.056l-0.096 0.096zM588.48 830.72c-3.616 0.704-7.776 1.12-12.032 1.12-31.008 0-56.896-21.824-63.168-50.944l-0.064-0.416-128-639.968c-0.8-3.776-1.248-8.16-1.248-12.608 0-30.88 21.952-56.672 51.104-62.56l0.416-0.064c3.68-0.8 7.936-1.248 12.288-1.248 0.128 0 0.256 0 0.352 0h-0.032c30.88 0.064 56.608 21.952 62.56 51.072l0.064 0.416 128 639.968c0.8 3.776 1.248 8.16 1.248 12.608 0 30.88-21.952 56.672-51.104 62.56l-0.416 0.064zM1009.088 488.992l-160 192c-11.808 14.24-29.536 23.264-49.344 23.264-35.328 0-63.968-28.64-63.968-63.968 0-15.776 5.696-30.208 15.168-41.376l-0.064 0.096 125.856-151.008-125.856-150.976c-9.376-11.072-15.072-25.504-15.072-41.28 0-35.328 28.64-63.968 63.968-63.968 19.808 0 37.536 8.992 49.248 23.136l0.096 0.096 160 192c9.28 11.008 14.912 25.344 14.912 40.992s-5.632 29.984-14.976 41.088l0.064-0.096z" />
<glyph unicode="&#xe920;" glyph-name="history" d="M512 874.656c-113.984-0.32-217.376-45.312-293.696-118.336l0.16 0.16v75.52c0 23.552-19.104 42.656-42.656 42.656s-42.656-19.104-42.656-42.656v0-192c0-23.552 19.104-42.656 42.656-42.656v0h192c23.552 0 42.656 19.104 42.656 42.656s-19.104 42.656-42.656 42.656v0h-102.4c62.24 64.96 149.728 105.344 246.624 105.344 188.512 0 341.344-152.832 341.344-341.344s-152.832-341.344-341.344-341.344c-188.512 0-341.344 152.832-341.344 341.344 0 0.48 0 0.928 0 1.408v-0.064c0 23.552-19.104 42.656-42.656 42.656s-42.656-19.104-42.656-42.656v0c0-235.648 191.040-426.656 426.656-426.656s426.656 191.040 426.656 426.656c0 235.648-191.040 426.656-426.656 426.656v0zM512 618.656c-23.552 0-42.656-19.104-42.656-42.656v0-128c0-23.552 19.104-42.656 42.656-42.656v0h85.344c23.552 0 42.656 19.104 42.656 42.656s-19.104 42.656-42.656 42.656v0h-42.656v85.344c0 23.552-19.104 42.656-42.656 42.656v0z" />
<glyph unicode="&#xe921;" glyph-name="hand" d="M822.976 110.56v524.192c0 61.792-93.44 61.824-93.44 0v-200.48h-26.656v349.44c0 61.824-93.44 61.792-93.44 0v-349.44h-26.656v399.776c0 61.824-93.44 61.792-93.44 0v-399.776h-26.656v307.040c0 61.824-93.44 61.824-93.44 0v-417.6c0 0-56.864 65.696-99.2 99.296-31.808 25.216-78.848-20.768-67.168-49.664 50.784-125.568 129.28-357.728 278.432-357.728 94.56 0 248.224 0 248.224 0 15.904 0 93.44 8.032 93.44 94.944v0z" />
<glyph unicode="&#xe922;" glyph-name="pointer" horiz-adv-x="1248" d="M298.656 874.656l512-477.856-247.456-21.344 140.8-311.456-93.856-42.688-136.544 315.744-174.944-166.4v704zM658.272 886.848h585.152v-73.152h-585.152v73.152zM804.576 667.424h438.848v-73.152h-438.848v73.152zM950.848 448h292.576v-73.152h-292.576v73.152z" />
<glyph unicode="&#xe923;" glyph-name="bars" d="M128 618.656h768c23.552 0 42.656 19.104 42.656 42.656s-19.104 42.656-42.656 42.656v0h-768c-23.552 0-42.656-19.104-42.656-42.656s19.104-42.656 42.656-42.656v0zM896 277.344h-768c-23.552 0-42.656-19.104-42.656-42.656s19.104-42.656 42.656-42.656v0h768c23.552 0 42.656 19.104 42.656 42.656s-19.104 42.656-42.656 42.656v0zM896 490.656h-768c-23.552 0-42.656-19.104-42.656-42.656s19.104-42.656 42.656-42.656v0h768c23.552 0 42.656 19.104 42.656 42.656s-19.104 42.656-42.656 42.656v0z" />
<glyph unicode="&#xe924;" glyph-name="tag" d="M60.339 856.888c0 23.564 19.103 42.667 42.667 42.667h426.667c11.315 0 22.17-4.495 30.17-12.497l366.596-366.597c23.842-23.983 37.222-56.422 37.222-90.24s-13.38-66.257-37.222-90.24l-305.993-305.993c-0.004-0.004 0.004 0.004 0 0-11.883-11.895-26.014-21.346-41.545-27.785-15.539-6.443-32.196-9.758-49.015-9.758s-33.476 3.315-49.015 9.758c-15.535 6.438-29.649 15.876-41.536 27.776-0.003 0 0.003-0.004 0 0l-366.481 366.054c-8.012 8.004-12.515 18.863-12.515 30.187v426.667zM145.672 814.221v-366.31l354.027-353.617c3.964-3.968 8.67-7.113 13.85-9.259 5.18-2.15 10.731-3.255 16.337-3.255s11.157 1.105 16.337 3.255c5.18 2.146 9.886 5.291 13.85 9.259l305.847 305.847c0.013 0.013 0.026 0.026 0.038 0.038 7.923 7.991 12.369 18.786 12.369 30.042s-4.446 22.050-12.369 30.042c-0.013 0.013-0.026 0.026-0.038 0.038l-353.92 353.92h-366.327zM273.672 643.554c0 23.564 19.103 42.667 42.667 42.667h0.427c23.564 0 42.667-19.103 42.667-42.667s-19.102-42.667-42.667-42.667h-0.427c-23.564 0-42.667 19.103-42.667 42.667z" />
<glyph unicode="&#xe925;" glyph-name="clock" d="M512 832c-212.077 0-384-171.923-384-384 0-212.079 171.923-384 384-384 212.079 0 384 171.921 384 384 0 212.077-171.921 384-384 384zM42.667 448c0 259.206 210.128 469.333 469.333 469.333 259.204 0 469.333-210.128 469.333-469.333 0-259.204-210.129-469.333-469.333-469.333-259.206 0-469.333 210.129-469.333 469.333zM512 746.667c23.565 0 42.667-19.103 42.667-42.667v-229.632l147.081-73.54c21.077-10.539 29.619-36.164 19.081-57.242s-36.164-29.619-57.242-19.081l-170.667 85.333c-14.455 7.228-23.586 21.999-23.586 38.161v256c0 23.564 19.102 42.667 42.667 42.667z" />
<glyph unicode="&#xe926;" glyph-name="image" d="M213.333 789.332c-23.564 0-42.667-19.103-42.667-42.667v-597.333c0-23.565 19.103-42.667 42.667-42.667h597.333c23.565 0 42.667 19.102 42.667 42.667v597.333c0 23.564-19.102 42.667-42.667 42.667h-597.333zM85.333 746.666c0 70.692 57.308 128 128 128h597.333c70.694 0 128-57.308 128-128v-597.333c0-70.694-57.306-128-128-128h-597.333c-70.692 0-128 57.306-128 128v597.333zM362.667 618.666c-11.782 0-21.333-9.551-21.333-21.333s9.551-21.333 21.333-21.333c11.782 0 21.333 9.551 21.333 21.333s-9.551 21.333-21.333 21.333zM256 597.332c0 58.91 47.756 106.667 106.667 106.667s106.667-47.756 106.667-106.667c0-58.91-47.756-106.667-106.667-106.667s-106.667 47.756-106.667 106.667zM652.497 563.502c16.661 16.662 43.678 16.662 60.339 0l213.333-213.334c16.661-16.661 16.661-43.678 0-60.339s-43.678-16.661-60.339 0l-183.164 183.164-439.163-439.164c-16.663-16.661-43.677-16.661-60.34 0s-16.662 43.678 0 60.339l469.334 469.334z" />
<glyph unicode="&#xe927;" glyph-name="pin" d="M610.186 894.998c0.017 0 0.037 0 0.057 0 8.822 0 16.811-3.57 22.599-9.345l316.799-316.799c5.789-5.791 9.369-13.789 9.369-22.624s-3.58-16.833-9.369-22.624v0c-30.72-30.72-68.608-37.632-96.192-37.632-11.328 0-21.44 1.152-29.44 2.496l-200.576-200.576c4.89-18.781 8.527-40.916 10.169-63.603l0.071-1.229c2.944-44.928-2.048-107.968-46.080-152-5.791-5.789-13.789-9.369-22.624-9.369s-16.833 3.58-22.624 9.369l-181.056 180.992-203.648-203.648c-12.48-12.48-78.016-57.728-90.496-45.248s32.768 78.080 45.248 90.496l203.648 203.648-180.992 181.056c-5.789 5.791-9.369 13.789-9.369 22.624s3.58 16.833 9.369 22.624v0c44.032 44.032 107.072 49.088 152 46.080 23.915-1.711 46.049-5.348 67.455-10.807l-2.623 0.567 200.576 200.512c-1.598 8.852-2.528 19.058-2.56 29.475v0.029c0 27.52 6.912 65.408 37.696 96.192 5.786 5.772 13.772 9.342 22.592 9.344v0z" />
<glyph unicode="&#xe928;" glyph-name="edit" d="M95.501 777.724c23.013 23.013 54.226 35.941 86.775 35.941h286.337c22.594 0 40.907-18.313 40.907-40.907s-18.312-40.907-40.907-40.907h-286.337c-10.848 0-21.252-4.311-28.927-11.98s-11.98-18.074-11.98-28.927v-572.674c0-10.847 4.311-21.253 11.98-28.926s18.074-11.98 28.927-11.98h572.674c10.847 0 21.253 4.313 28.926 11.98s11.98 18.074 11.98 28.926v286.337c0 22.594 18.312 40.907 40.907 40.907s40.907-18.312 40.907-40.907v-286.337c0-32.548-12.928-63.761-35.941-86.774s-54.223-35.941-86.774-35.941h-572.674c-32.548 0-63.761 12.928-86.775 35.941s-35.941 54.223-35.941 86.774v572.674c0 32.548 12.927 63.761 35.941 86.775zM836.764 818.632c-12.166 0-23.833-4.835-32.435-13.432l-380.589-380.589-21.624-86.492 86.492 21.624 380.589 380.589c8.603 8.602 13.432 20.271 13.432 32.435s-4.833 23.833-13.432 32.435c-8.603 8.602-20.271 13.432-32.435 13.432zM746.48 863.043c23.948 23.947 56.419 37.398 90.284 37.398s66.34-13.451 90.284-37.398c23.948-23.946 37.397-56.418 37.397-90.284s-13.449-66.338-37.397-90.284l-388.602-388.602c-5.238-5.238-11.808-8.964-19-10.759l-163.624-40.907c-13.941-3.483-28.687 0.595-38.845 10.759s-14.244 24.909-10.761 38.847l40.907 163.622c1.797 7.192 5.515 13.762 10.761 19l388.601 388.602z" />
<glyph unicode="&#xe929;" glyph-name="lock" d="M512.001 204.571c48.686 0 88.519 39.833 88.519 88.519s-39.833 88.519-88.519 88.519c-48.686 0-88.519-39.833-88.519-88.519s39.833-88.519 88.519-88.519zM777.56 602.909h-44.259v88.519c0 123.928-97.372 221.297-221.297 221.297s-221.297-97.372-221.297-221.297h84.092c0 75.242 61.963 137.205 137.205 137.205s137.205-61.963 137.205-137.205v-88.519h-402.765c-48.686 0-88.519-39.833-88.519-88.519v-442.598c0-48.686 39.833-88.519 88.519-88.519h531.116c48.686 0 88.519 39.833 88.519 88.519v442.598c0 48.686-39.833 88.519-88.519 88.519zM777.56 71.793h-531.116v442.598h531.116v-442.598z" />
<glyph unicode="&#xe92a;" glyph-name="fullscreen" d="M911 277c-31.473 0-57-25.527-57-57v0-33.63l-130.53 131.1c-10.365 10.365-24.672 16.761-40.47 16.761-31.62 0-57.231-25.636-57.231-57.231 0-15.798 6.396-30.105 16.761-40.47v0l131.1-130.53h-33.63c-31.473 0-57-25.527-57-57s25.527-57 57-57v0h171c7.855 0.105 15.276 1.766 22.017 4.69l-0.357-0.155c13.97 5.917 24.863 16.81 30.651 30.395l0.129 0.385c2.794 6.384 4.455 13.805 4.56 21.614v171.046c0 31.473-25.527 57-57 57v0zM250.37 790h33.63c31.473 0 57 25.527 57 57s-25.527 57-57 57v0h-171c-7.855-0.105-15.276-1.766-22.017-4.69l0.357 0.13c-13.97-5.917-24.863-16.81-30.651-30.395l-0.129-0.385c-2.794-6.384-4.455-13.805-4.56-21.614v-171.046c0-31.473 25.527-57 57-57s57 25.527 57 57v0 33.63l130.53-131.1c10.325-10.421 24.637-16.866 40.47-16.866s30.145 6.444 40.468 16.863l0.002 0.002c10.421 10.325 16.866 24.637 16.866 40.47s-6.444 30.145-16.863 40.468l-0.002 0.002zM963.44 868.66c-5.917 13.97-16.81 24.863-30.395 30.651l-0.385 0.129c-6.384 2.794-13.805 4.455-21.614 4.56h-171.046c-31.473 0-57-25.527-57-57s25.527-57 57-57v0h33.63l-131.1-130.53c-10.421-10.325-16.866-24.637-16.866-40.47s6.444-30.145 16.863-40.468l0.002-0.002c10.325-10.421 24.637-16.866 40.47-16.866s30.145 6.444 40.468 16.863l0.002 0.002 130.53 131.1v-33.63c0-31.473 25.527-57 57-57s57 25.527 57 57v0 171c-0.105 7.855-1.766 15.276-4.69 22.017l0.13-0.357zM300.53 317.47l-130.53-131.1v33.63c0 31.473-25.527 57-57 57s-57-25.527-57-57v0-171c0.105-7.855 1.766-15.276 4.69-22.017l-0.13 0.357c5.917-13.97 16.81-24.863 30.395-30.651l0.385-0.129c6.384-2.794 13.805-4.455 21.614-4.56h171.046c31.473 0 57 25.527 57 57s-25.527 57-57 57v0h-33.63l131.1 130.53c10.365 10.365 16.761 24.672 16.761 40.47 0 31.62-25.636 57.231-57.231 57.231-15.798 0-30.105-6.396-40.47-16.761v0z" />
<glyph unicode="&#xe92b;" glyph-name="star" d="M511.999 904c16.506 0 31.587-9.377 38.898-24.185l123.942-251.171 277.174-40.526c16.331-2.387 29.896-13.842 34.984-29.552s0.827-32.942-10.994-44.463l-200.526-195.371 47.324-276.013c2.791-16.274-3.9-32.732-17.254-42.437s-31.067-10.984-45.683-3.297l-247.864 130.388-247.863-130.388c-14.616-7.688-32.323-6.412-45.684 3.297s-20.046 26.161-17.255 42.437l47.326 276.013-200.526 195.371c-11.828 11.522-16.088 28.757-10.995 44.463s18.655 27.161 34.984 29.552l277.171 40.526 123.944 251.171c7.31 14.807 22.384 24.185 38.898 24.185zM511.999 762.591l-95.131-192.787c-6.311-12.795-18.507-21.664-32.622-23.729l-212.803-31.113 153.946-149.993c10.232-9.968 14.903-24.337 12.487-38.418l-36.324-211.841 190.253 100.083c12.635 6.643 27.733 6.643 40.375 0l190.252-100.083-36.321 211.841c-2.418 14.081 2.252 28.45 12.485 38.418l153.945 149.993-212.802 31.113c-14.108 2.065-26.306 10.933-32.623 23.729l-95.131 192.787z" />
</font>
</defs>
</svg>
